<svg xmlns="http://www.w3.org/2000/svg" xmlns:xlink="http://www.w3.org/1999/xlink" width="160.128" height="86" viewBox="0 0 160.128 86">
  <defs>
    <style>
      .logo-mobile-cls-1 {
        fill: #fff;
        font-size: 1.875rem;
        font-family: Satoshi, sans-serif;
        font-weight: 800;
        font-variation-settings: "wght" 800;
      }

      .logo-mobile-cls-2 {
        font-family: Satoshi, sans-serif;
        font-weight: 600;
        font-variation-settings: "wght" 600;
      }

      .logo-mobile-cls-3 {
        fill: rgba(173,86,86,0);
        stroke: #fff;
        stroke-linecap: round;
        stroke-linejoin: round;
        stroke-width: 2px;
      }

      .logo-mobile-cls-4 {
        filter: url(#logo-mobile-Path_7);
      }

      .logo-mobile-cls-5 {
        filter: url(#logo-mobile-Path_6);
      }

      .logo-mobile-cls-6 {
        filter: url(#logo-mobile-Path_5);
      }

      .logo-mobile-cls-7 {
        filter: url(#logo-mobile-Path_4);
      }

      .logo-mobile-cls-8 {
        filter: url(#logo-mobile-Path_3);
      }

      .logo-mobile-cls-9 {
        filter: url(#logo-mobile-Path_2);
      }

      .logo-mobile-cls-10 {
        filter: url(#logo-mobile-Path_1);
      }

      .logo-mobile-cls-11 {
        filter: url(#hREA-logo-mobile);
      }
    </style>
    <filter id="hREA-logo-mobile" x="32.128" y="0" width="128" height="86" filterUnits="userSpaceOnUse">
      <feOffset input="SourceAlpha"/>
      <feGaussianBlur stdDeviation="8" result="blur"/>
      <feFlood flood-color="#f4ede7" flood-opacity="0.4"/>
      <feComposite operator="in" in2="blur"/>
      <feComposite in="SourceGraphic"/>
    </filter>
    <filter id="logo-mobile-Path_1" x="8.578" y="20.68" width="41.076" height="31.654" filterUnits="userSpaceOnUse">
      <feOffset input="SourceAlpha"/>
      <feGaussianBlur stdDeviation="4" result="blur-2"/>
      <feFlood flood-color="#f4ede7" flood-opacity="0.4"/>
      <feComposite operator="in" in2="blur-2"/>
      <feComposite in="SourceGraphic"/>
    </filter>
    <filter id="logo-mobile-Path_2" x="8.578" y="23.507" width="41.076" height="34.48" filterUnits="userSpaceOnUse">
      <feOffset input="SourceAlpha"/>
      <feGaussianBlur stdDeviation="4" result="blur-3"/>
      <feFlood flood-color="#f4ede7" flood-opacity="0.4"/>
      <feComposite operator="in" in2="blur-3"/>
      <feComposite in="SourceGraphic"/>
    </filter>
    <filter id="logo-mobile-Path_3" x="8.578" y="29.161" width="41.076" height="34.48" filterUnits="userSpaceOnUse">
      <feOffset input="SourceAlpha"/>
      <feGaussianBlur stdDeviation="4" result="blur-4"/>
      <feFlood flood-color="#f4ede7" flood-opacity="0.4"/>
      <feComposite operator="in" in2="blur-4"/>
      <feComposite in="SourceGraphic"/>
    </filter>
    <filter id="logo-mobile-Path_4" x="0.794" y="13.991" width="56.614" height="39.738" filterUnits="userSpaceOnUse">
      <feOffset input="SourceAlpha"/>
      <feGaussianBlur stdDeviation="4" result="blur-5"/>
      <feFlood flood-color="#f4ede7" flood-opacity="0.4"/>
      <feComposite operator="in" in2="blur-5"/>
      <feComposite in="SourceGraphic"/>
    </filter>
    <filter id="logo-mobile-Path_5" x="0.128" y="15.919" width="33.788" height="33.788" filterUnits="userSpaceOnUse">
      <feOffset input="SourceAlpha"/>
      <feGaussianBlur stdDeviation="4" result="blur-6"/>
      <feFlood flood-color="#f4ede7" flood-opacity="0.4"/>
      <feComposite operator="in" in2="blur-6"/>
      <feComposite in="SourceGraphic"/>
    </filter>
    <filter id="logo-mobile-Path_6" x="0" y="31.366" width="56.614" height="39.738" filterUnits="userSpaceOnUse">
      <feOffset input="SourceAlpha"/>
      <feGaussianBlur stdDeviation="4" result="blur-7"/>
      <feFlood flood-color="#f4ede7" flood-opacity="0.4"/>
      <feComposite operator="in" in2="blur-7"/>
      <feComposite in="SourceGraphic"/>
    </filter>
    <filter id="logo-mobile-Path_7" x="23.492" y="35.388" width="33.788" height="33.788" filterUnits="userSpaceOnUse">
      <feOffset input="SourceAlpha"/>
      <feGaussianBlur stdDeviation="4" result="blur-8"/>
      <feFlood flood-color="#f4ede7" flood-opacity="0.4"/>
      <feComposite operator="in" in2="blur-8"/>
      <feComposite in="SourceGraphic"/>
    </filter>
  </defs>
  <g id="hrea-logo-mobile" transform="translate(-21.872 -1)">
    <g class="logo-mobile-cls-11" transform="matrix(1, 0, 0, 1, 21.87, 1)">
      <text id="hREA-logo-mobile-2" data-name="hREA-logo-mobile" class="logo-mobile-cls-1" transform="translate(56.13 55)"><tspan x="0" y="0">h</tspan><tspan class="logo-mobile-cls-2" y="0">REA</tspan></text>
    </g>
    <g id="logo-visual-mobile" transform="translate(35 28)">
      <g class="logo-mobile-cls-10" transform="matrix(1, 0, 0, 1, -13.13, -27)">
        <path id="logo-mobile-Path_1-2" data-name="Path 1" class="logo-mobile-cls-3" d="M11.538,8.654c4.163,0,7.538-1.265,7.538-2.827S15.7,3,11.538,3,4,4.265,4,5.827,7.375,8.654,11.538,8.654Z" transform="translate(17.58 30.68)"/>
      </g>
      <g class="logo-mobile-cls-9" transform="matrix(1, 0, 0, 1, -13.13, -27)">
        <path id="logo-mobile-Path_2-2" data-name="Path 2" class="logo-mobile-cls-3" d="M4,6v5.654c0,.75.794,1.469,2.208,2a15.833,15.833,0,0,0,5.33.828,15.833,15.833,0,0,0,5.33-.828c1.413-.529,2.208-1.248,2.208-2V6" transform="translate(17.58 30.51)"/>
      </g>
      <g class="logo-mobile-cls-8" transform="matrix(1, 0, 0, 1, -13.13, -27)">
        <path id="Path_3-2" data-name="Path 3" class="logo-mobile-cls-3" d="M4,12v5.654c0,.75.794,1.469,2.208,2a15.833,15.833,0,0,0,5.33.828,15.833,15.833,0,0,0,5.33-.828c1.413-.529,2.208-1.248,2.208-2V12" transform="translate(17.58 30.16)"/>
      </g>
      <g class="logo-mobile-cls-7" transform="matrix(1, 0, 0, 1, -13.13, -27)">
        <path id="logo-mobile-Path_4-2" data-name="Path 4" class="logo-mobile-cls-3" d="M34.678,17.615A15.771,15.771,0,0,0,4.5,13.721" transform="translate(9.6 22.99)"/>
      </g>
      <g class="logo-mobile-cls-6" transform="matrix(1, 0, 0, 1, -13.13, -27)">
        <path id="logo-mobile-Path_5-2" data-name="Path 5" class="logo-mobile-cls-3" d="M4,5v7.788h7.788" transform="translate(9.13 23.92)"/>
      </g>
      <g class="logo-mobile-cls-5" transform="matrix(1, 0, 0, 1, -13.13, -27)">
        <path id="logo-mobile-Path_6-2" data-name="Path 6" class="logo-mobile-cls-3" d="M4,13a15.771,15.771,0,0,0,30.178,3.894" transform="translate(9.13 31.49)"/>
      </g>
      <g class="logo-mobile-cls-4" transform="matrix(1, 0, 0, 1, -13.13, -27)">
        <path id="logo-mobile-Path_7-2" data-name="Path 7" class="logo-mobile-cls-3" d="M23.788,22.788V15H16" transform="translate(20.49 33.39)"/>
      </g>
    </g>
  </g>
</svg>
