<svg xmlns="http://www.w3.org/2000/svg" xmlns:xlink="http://www.w3.org/1999/xlink" width="313" height="636" viewBox="0 0 313 636">
  <defs>
    <style>
      .roadmap-vertical-cls-1 {
        fill: none;
        stroke: #f5d095;
        stroke-linecap: round;
        stroke-width: 3px;
        stroke-dasharray: 10;
      }

      .roadmap-vertical-cls-2 {
        fill: #27363b;
      }

      .roadmap-vertical-cls-3, .roadmap-vertical-cls-4, .roadmap-vertical-cls-5, .roadmap-vertical-cls-6 {
        fill: #fff;
      }

      .roadmap-vertical-cls-3, .roadmap-vertical-cls-4 {
        font-size: 18px;
      }

      .roadmap-vertical-cls-3 {
        font-family: Satoshi-Bold, Satoshi;
        font-weight: 700;
      }

      .roadmap-vertical-cls-4, .roadmap-vertical-cls-5 {
        font-family: Satoshi-Medium, Satoshi;
        font-weight: 500;
      }

      .roadmap-vertical-cls-5 {
        font-size: 16px;
      }

      .roadmap-vertical-cls-6 {
        font-size: 14px;
        font-family: Satoshi-Regular, Satoshi;
      }

      .roadmap-vertical-cls-7 {
        filter: url(#circle-bg-3);
      }

      .roadmap-vertical-cls-8 {
        filter: url(#circle-bg-2);
      }

      .roadmap-vertical-cls-9 {
        filter: url(#circle-bg);
      }
    </style>
    <filter id="circle-bg" x="15" y="0" width="169" height="169" filterUnits="userSpaceOnUse">
      <feOffset input="SourceAlpha"/>
      <feGaussianBlur stdDeviation="10" result="blur"/>
      <feFlood flood-color="#fff" flood-opacity="0.341"/>
      <feComposite operator="in" in2="blur"/>
      <feComposite in="SourceGraphic"/>
    </filter>
    <filter id="circle-bg-2" x="15" y="240" width="169" height="169" filterUnits="userSpaceOnUse">
      <feOffset input="SourceAlpha"/>
      <feGaussianBlur stdDeviation="10" result="blur-2"/>
      <feFlood flood-color="#fff" flood-opacity="0.341"/>
      <feComposite operator="in" in2="blur-2"/>
      <feComposite in="SourceGraphic"/>
    </filter>
    <filter id="circle-bg-3" x="0" y="378" width="199" height="199" filterUnits="userSpaceOnUse">
      <feOffset input="SourceAlpha"/>
      <feGaussianBlur stdDeviation="15" result="blur-3"/>
      <feFlood flood-color="#f5d095"/>
      <feComposite operator="in" in2="blur-3"/>
      <feComposite in="SourceGraphic"/>
    </filter>
  </defs>
  <g id="roadmap-vis-vertical" transform="translate(45 30.249)">
    <line id="Line_1" data-name="Line 1" class="roadmap-vertical-cls-1" y2="549" transform="translate(54.5 54.251)"/>
    <g id="roadmap-circle">
      <g class="roadmap-vertical-cls-9" transform="matrix(1, 0, 0, 1, -45, -30.25)">
        <path id="circle-bg-4" data-name="circle-bg" class="roadmap-vertical-cls-2" d="M54.5,0A54.5,54.5,0,1,1,0,54.5,54.5,54.5,0,0,1,54.5,0Z" transform="translate(45 30)"/>
      </g>
      <text id="Oct_2018" data-name="Oct 2018" class="roadmap-vertical-cls-3" transform="translate(16 61.751)"><tspan x="0" y="0">Oct 2018</tspan></text>
    </g>
    <text id="Goal_for_MMR" data-name="Goal for MMR" class="roadmap-vertical-cls-4" transform="translate(126 454.751)"><tspan x="0" y="0">Goal for MMR</tspan></text>
    <text id="hREA_ad_hoc_dev_phase_started" data-name="hREA ad hoc 
dev phase started" class="roadmap-vertical-cls-5" transform="translate(126 49.751)"><tspan x="0" y="0">hREA ad hoc </tspan><tspan x="0" y="22">dev phase started</tspan></text>
    <text id="Kickstart_of_current_development_phase" data-name="Kickstart of current
development phase" class="roadmap-vertical-cls-5" transform="translate(126 289.751)"><tspan x="0" y="0">Kickstart of current</tspan><tspan x="0" y="22">development phase</tspan></text>
    <text id="First_applications_on_top_of_hREA_are_built" data-name="First applications
on top of hREA 
are built" class="roadmap-vertical-cls-6" transform="translate(70 566.751)"><tspan x="0" y="0">First applications</tspan><tspan x="0" y="18">on top of hREA </tspan><tspan x="0" y="36">are built</tspan></text>
    <g id="roadmap-circle-2" data-name="roadmap-circle" transform="translate(0 240)">
      <g class="roadmap-vertical-cls-8" transform="matrix(1, 0, 0, 1, -45, -270.25)">
        <path id="circle-bg-5" data-name="circle-bg" class="roadmap-vertical-cls-2" d="M54.5,0A54.5,54.5,0,1,1,0,54.5,54.5,54.5,0,0,1,54.5,0Z" transform="translate(45 270)"/>
      </g>
      <text id="May_2022" data-name="May 2022" class="roadmap-vertical-cls-3" transform="translate(12 61.751)"><tspan x="0" y="0">May 2022</tspan></text>
    </g>
    <g id="roadmap-circle-3" data-name="roadmap-circle" transform="translate(0 393)">
      <g class="roadmap-vertical-cls-7" transform="matrix(1, 0, 0, 1, -45, -423.25)">
        <path id="circle-bg-6" data-name="circle-bg" class="roadmap-vertical-cls-2" d="M54.5,0A54.5,54.5,0,1,1,0,54.5,54.5,54.5,0,0,1,54.5,0Z" transform="translate(45 423)"/>
      </g>
      <text id="Aug_2022" data-name="Aug 2022" class="roadmap-vertical-cls-3" transform="translate(12 61.751)"><tspan x="0" y="0">Aug 2022</tspan></text>
    </g>
  </g>
</svg>
